<svg xmlns="http://www.w3.org/2000/svg" xmlns:xlink="http://www.w3.org/1999/xlink"  version="1.1" width="16" height="16" viewBox="0 0 16 16"><defs><clipPath id="master_svg0_17_0"><rect x="0" y="0" width="16" height="16" rx="0"/></clipPath></defs><g clip-path="url(#master_svg0_17_0)"><g><path d="M7.67603935546875,10.3936331640625C7.37035935546875,10.3936331640625,7.07022935546875,10.3143331640625,6.78399935546875,10.1579631640625C6.33852935546875,9.9146031640625,1.6883243554687501,7.1977731640625,1.49058935546875,7.0822231640625L1.46960535546875,7.0692331640625C1.39780835546875,7.0221831640625,1.03843305546875,6.7652331640625,1.01322996546875,6.3275731640625C1.00177681546875,6.1284031640625,1.05813625546875,5.832523164062501,1.3917923554687501,5.5541331640625L1.43130835546875,5.5211631640625L7.72200935546875,2.2329771640625C7.82331935546875,2.1698841640625,8.12522935546875,2.0054931640625,8.52086935546875,2.0054931640625C8.80288935546875,2.0054931640625,9.07083935546875,2.0861182640625,9.31733935546875,2.2451651640625C9.91019935546875,2.6276341640625,14.50128935546875,5.486413164062499,14.54758935546875,5.5152631640625L14.55678935546875,5.521133164062499C14.63388935546875,5.5716331640625,15.01868935546875,5.846693164062501,15.01708935546875,6.3034931640625C15.01638935546875,6.5153831640625,14.92968935546875,6.8233731640625,14.52058935546875,7.0873531640625C14.05238935546875,7.3893831640625,9.12188935546875,9.8697731640625,8.48391935546875,10.1904331640625C8.38625935546875,10.2469131640625,8.09246935546875,10.3936331640625,7.67603935546875,10.3936331640625ZM2.0340093554687497,6.2886331640625C2.58944935546875,6.6130831640625,6.83683935546875,9.0936631640625,7.24392935546875,9.3160731640625C7.38752935546875,9.3945131640625,7.53289935546875,9.4343031640625,7.67602935546875,9.4343031640625C7.85186935546875,9.4343031640625,7.97686935546875,9.3738731640625,8.00108935546875,9.361223164062501L8.02474935546875,9.3448331640625L8.03792935546875,9.3409031640625C10.21972935546875,8.2444031640625,13.56178935546875,6.5485231640625,13.98158935546875,6.2930131640625C13.41748935546875,5.9417631640625,9.36670935546875,3.4187231640625,8.797229355468751,3.0513231640625C8.70706935546875,2.9931491640625,8.61664935546875,2.9648681640625,8.520859355468751,2.9648681640625C8.36589935546875,2.9648681640625,8.238669355468751,3.0408231640625,8.23756935546875,3.0415831640624997L8.21241935546875,3.0591531640625L2.0340093554687497,6.2886331640625ZM14.93698935546875,8.4526531640625C14.93698935546875,8.1963331640625,14.71668935546875,7.9884331640625,14.44488935546875,7.9884331640625C14.32668935546875,7.9884331640625,14.21828935546875,8.027763164062499,14.13348935546875,8.0933531640625L14.13128935546875,8.0901831640625C13.79788935546875,8.2998631640625,10.28988935546875,10.0350731640625,8.01328935546875,11.1503031640625L7.99980935546875,11.1543731640625L7.97558935546875,11.1706631640625C7.92217935546875,11.1991231640625,7.60644935546875,11.3472731640625,7.18969935546875,11.1253331640625C6.75821935546875,10.8955731640625,2.12461935546875,8.2573731640625,1.8010733554687501,8.0730531640625C1.71723035546875,8.010493164062499,1.61138635546875,7.9730831640625,1.49618335546875,7.9730831640625C1.22440235546875,7.9730831640625,1.00408935546875,8.1809931640625,1.00408935546875,8.437303164062499C1.00408935546875,8.6270231640625,1.12482335546875,8.7900831640625,1.29771435546875,8.862073164062501L1.2969953554687499,8.8632431640625C1.49985535546875,8.9787931640625,6.27031935546875,11.6954731640625,6.72721935546875,11.9387631640625C7.05035935546875,12.1108931640625,7.36408935546875,12.1725931640625,7.64071935546875,12.1725931640625C7.99575935546875,12.1725931640625,8.28970935546875,12.0708931640625,8.46396935546875,11.9701531640625C9.11702935546875,11.6502131640625,14.03998935546875,9.2361531640625,14.63218935546875,8.8819731640625C14.81098935546875,8.8124631640625,14.93698935546875,8.6464631640625,14.93698935546875,8.4526531640625ZM14.93698935546875,10.2941331640625C14.93698935546875,10.0377431640625,14.71668935546875,9.8299131640625,14.44488935546875,9.8299131640625C14.32668935546875,9.8299131640625,14.21828935546875,9.8692431640625,14.13348935546875,9.9347731640625L14.13128935546875,9.931613164062501C13.79788935546875,10.1412731640625,10.28988935546875,11.8765531640625,8.01328935546875,12.9917931640625L7.99980935546875,12.9957931640625L7.97558935546875,13.0121931640625C7.92217935546875,13.0405931640625,7.60644935546875,13.1886931640625,7.18969935546875,12.9667931640625C6.75821935546875,12.7369931640625,2.12461935546875,10.0987631640625,1.80107435546875,9.9145431640625C1.71723035546875,9.8519731640625,1.61138635546875,9.8145431640625,1.49618335546875,9.8145431640625C1.22440235546875,9.8145431640625,1.00408983230575,10.0224031640625,1.00408983230575,10.2787631640625C1.00408983230575,10.4685131640625,1.12482435546875,10.6315531640625,1.29771435546875,10.7035531640625L1.29699635546875,10.7047131640625C1.49985535546875,10.8202531640625,6.27031935546875,13.5369931640625,6.72721935546875,13.7801931640625C7.05035935546875,13.9522931640625,7.36408935546875,14.0140931640625,7.64071935546875,14.0140931640625C7.99575935546875,14.0140931640625,8.28970935546875,13.9123931640625,8.46396935546875,13.8115931640625C9.11702935546875,13.4916931640625,14.03998935546875,11.0776331640625,14.63218935546875,10.7234631640625C14.81098935546875,10.6539431640625,14.93698935546875,10.4879431640625,14.93698935546875,10.2941331640625Z"  style="mix-blend-mode:passthrough"/></g></g></svg>